<svg width="192" height="172" viewBox="0 0 192 172" fill="none" xmlns="http://www.w3.org/2000/svg">
<g clip-path="url(#clip0_719_3610)">
<path d="M98.0787 0.374887L91.8472 1.98184L15.0747 21.7799L8.84327 23.3869C5.81861 24.1705 3.22829 26.122 1.64062 28.8131C0.0529489 31.5041 -0.402425 34.7151 0.374405 37.7416L27.3953 142.522C28.1789 145.547 30.1303 148.137 32.8214 149.725C35.5125 151.313 38.7235 151.768 41.7499 150.991L41.766 150.987L130.969 127.983L130.985 127.979C134.01 127.196 136.6 125.244 138.188 122.553C139.776 119.862 140.231 116.651 139.454 113.625L112.433 8.84381C111.65 5.81914 109.698 3.22881 107.007 1.64113C104.316 0.0534461 101.105 -0.401937 98.0787 0.374887Z" fill="#F2F2F2"/>
<path d="M98.9248 3.65981L91.5441 5.56315L17.0699 24.7686L9.68928 26.6719C7.53534 27.2299 5.69071 28.6195 4.56008 30.5359C3.42946 32.4523 3.10517 34.7389 3.65837 36.8941L30.6792 141.675C31.2373 143.829 32.6269 145.674 34.5433 146.804C36.4597 147.935 38.7463 148.259 40.9015 147.706L40.9176 147.702L130.121 124.698L130.137 124.694C132.291 124.136 134.135 122.746 135.266 120.83C136.397 118.913 136.721 116.627 136.168 114.472L109.147 9.69073C108.589 7.53681 107.199 5.6922 105.283 4.56157C103.367 3.43095 101.08 3.10664 98.9248 3.65981Z" fill="white"/>
<path d="M93.3557 37.5905L48.2299 49.2275C47.7259 49.3575 47.1909 49.2819 46.7426 49.0174C46.2944 48.753 45.9695 48.3212 45.8395 47.8172C45.7095 47.3132 45.7851 46.7782 46.0496 46.3299C46.3141 45.8816 46.7458 45.5568 47.2498 45.4268L92.3755 33.7898C92.8794 33.6603 93.414 33.7362 93.8619 34.0007C94.3098 34.2653 94.6344 34.6968 94.7643 35.2005C94.8942 35.7042 94.8188 36.2389 94.5547 36.6871C94.2905 37.1352 93.8593 37.4602 93.3557 37.5905Z" fill="#F2F2F2"/>
<path d="M102.847 41.983L49.8823 55.6416C49.3783 55.7715 48.8433 55.696 48.395 55.4315C47.9467 55.167 47.6218 54.7353 47.4919 54.2313C47.3619 53.7273 47.4375 53.1923 47.7019 52.744C47.9664 52.2957 48.3982 51.9708 48.9022 51.8408L101.867 38.1823C102.371 38.0523 102.906 38.1279 103.354 38.3924C103.803 38.6569 104.127 39.0886 104.257 39.5926C104.387 40.0966 104.312 40.6316 104.047 41.0799C103.783 41.5282 103.351 41.853 102.847 41.983Z" fill="#F2F2F2"/>
<path d="M100.766 66.3336L55.6401 77.9706C55.3905 78.035 55.1308 78.0496 54.8756 78.0135C54.6204 77.9775 54.3748 77.8915 54.1528 77.7606C53.9308 77.6296 53.7368 77.4562 53.5819 77.2503C53.4269 77.0443 53.314 76.8099 53.2497 76.5603C53.1853 76.3108 53.1707 76.051 53.2068 75.7958C53.2428 75.5406 53.3288 75.295 53.4597 75.073C53.5907 74.8511 53.7641 74.6571 53.97 74.5021C54.176 74.3471 54.4104 74.2343 54.66 74.1699L99.7857 62.5329C100.035 62.4685 100.295 62.4539 100.55 62.49C100.805 62.526 101.051 62.612 101.273 62.7429C101.495 62.8739 101.689 63.0473 101.844 63.2532C101.999 63.4592 102.112 63.6936 102.176 63.9432C102.24 64.1927 102.255 64.4525 102.219 64.7077C102.183 64.9629 102.097 65.2085 101.966 65.4305C101.835 65.6524 101.662 65.8465 101.456 66.0014C101.25 66.1564 101.015 66.2693 100.766 66.3336Z" fill="#F2F2F2"/>
<path d="M110.257 70.7257L57.2924 84.3843C57.0429 84.4486 56.7831 84.4632 56.5279 84.4271C56.2727 84.3911 56.0271 84.3051 55.8051 84.1742C55.5832 84.0432 55.3892 83.8698 55.2342 83.6639C55.0793 83.4579 54.9664 83.2235 54.902 82.974C54.8377 82.7244 54.8231 82.4646 54.8591 82.2094C54.8952 81.9542 54.9811 81.7086 55.1121 81.4867C55.243 81.2647 55.4164 81.0707 55.6224 80.9157C55.8283 80.7608 56.0627 80.6479 56.3123 80.5835L109.277 66.925C109.781 66.795 110.316 66.8706 110.764 67.135C111.213 67.3995 111.538 67.8313 111.667 68.3353C111.797 68.8393 111.722 69.3743 111.457 69.8226C111.193 70.2709 110.761 70.5957 110.257 70.7257Z" fill="#F2F2F2"/>
<path d="M108.179 95.0768L63.0529 106.714C62.549 106.843 62.0143 106.768 61.5663 106.503C61.1183 106.239 60.7937 105.807 60.6637 105.303C60.5338 104.799 60.6093 104.265 60.8735 103.816C61.1377 103.368 61.569 103.043 62.0727 102.913L107.198 91.276C107.702 91.1461 108.237 91.2216 108.686 91.4861C109.134 91.7506 109.459 92.1823 109.589 92.6863C109.719 93.1903 109.643 93.7253 109.379 94.1736C109.114 94.6219 108.683 94.9468 108.179 95.0768Z" fill="#F2F2F2"/>
<path d="M117.673 99.4689L64.7082 113.127C64.4586 113.192 64.1986 113.207 63.9433 113.171C63.6879 113.135 63.4421 113.049 63.22 112.918C62.9978 112.787 62.8036 112.614 62.6485 112.408C62.4934 112.202 62.3805 111.967 62.3161 111.718C62.2517 111.468 62.2371 111.208 62.2733 110.953C62.3094 110.697 62.3955 110.452 62.5266 110.23C62.6577 110.007 62.8313 109.813 63.0375 109.659C63.2436 109.504 63.4783 109.391 63.7281 109.327L116.693 95.6681C117.197 95.5382 117.732 95.6137 118.18 95.8782C118.628 96.1427 118.953 96.5744 119.083 97.0784C119.213 97.5824 119.138 98.1174 118.873 98.5657C118.609 99.014 118.177 99.3389 117.673 99.4689Z" fill="#F2F2F2"/>
<path d="M40.5221 61.16L24.5525 65.2782C24.3109 65.3402 24.0545 65.3039 23.8396 65.1771C23.6247 65.0503 23.4689 64.8435 23.4063 64.6019L19.7405 50.3868C19.6785 50.1452 19.7148 49.8887 19.8416 49.6739C19.9684 49.459 20.1752 49.3032 20.4168 49.2406L36.3863 45.1224C36.628 45.0603 36.8844 45.0967 37.0993 45.2235C37.3141 45.3502 37.47 45.5571 37.5325 45.7986L41.1983 60.0137C41.2604 60.2554 41.224 60.5118 41.0972 60.7267C40.9705 60.9416 40.7636 61.0974 40.5221 61.16Z" fill="#E6E6E6"/>
<path d="M47.9362 89.9026L31.9666 94.0209C31.7249 94.0829 31.4685 94.0465 31.2537 93.9198C31.0388 93.793 30.8829 93.5861 30.8204 93.3446L27.1546 79.1295C27.0926 78.8878 27.1289 78.6314 27.2557 78.4165C27.3825 78.2017 27.5893 78.0458 27.8308 77.9833L43.8004 73.865C44.042 73.803 44.2984 73.8394 44.5133 73.9661C44.7282 74.0929 44.884 74.2998 44.9466 74.5413L48.6124 88.7564C48.6744 88.9981 48.6381 89.2545 48.5113 89.4694C48.3845 89.6842 48.1777 89.84 47.9362 89.9026Z" fill="#E6E6E6"/>
<path d="M55.3502 118.646L39.3807 122.764C39.139 122.826 38.8826 122.79 38.6677 122.663C38.4528 122.536 38.297 122.329 38.2344 122.088L34.5687 107.873C34.5066 107.631 34.543 107.375 34.6698 107.16C34.7965 106.945 35.0034 106.789 35.2449 106.726L51.2145 102.608C51.4561 102.546 51.7125 102.583 51.9274 102.709C52.1423 102.836 52.2981 103.043 52.3607 103.284L56.0265 117.5C56.0885 117.741 56.0521 117.998 55.9254 118.213C55.7986 118.427 55.5918 118.583 55.3502 118.646Z" fill="#E6E6E6"/>
<path d="M160.315 26.9355H68.1601C65.0356 26.9391 62.04 28.1818 59.8306 30.3912C57.6213 32.6006 56.3785 35.5961 56.375 38.7207V146.929C56.3785 150.054 57.6213 153.05 59.8306 155.259C62.04 157.468 65.0356 158.711 68.1601 158.715H160.315C163.439 158.711 166.435 157.468 168.644 155.259C170.854 153.05 172.096 150.054 172.1 146.929V38.7207C172.096 35.5961 170.854 32.6006 168.644 30.3912C166.435 28.1818 163.439 26.9391 160.315 26.9355Z" fill="#E6E6E6"/>
<path d="M160.317 30.3281H68.162C65.9369 30.3306 63.8037 31.2156 62.2304 32.789C60.657 34.3623 59.772 36.4955 59.7695 38.7206V146.929C59.772 149.154 60.657 151.288 62.2304 152.861C63.8037 154.434 65.9369 155.319 68.162 155.322H160.317C162.542 155.319 164.675 154.434 166.248 152.861C167.822 151.288 168.707 149.154 168.709 146.929V38.7206C168.707 36.4955 167.822 34.3624 166.248 32.789C164.675 31.2157 162.542 30.3306 160.317 30.3281Z" fill="white"/>
<path d="M169.998 171.88C181.879 171.88 191.511 162.248 191.511 150.367C191.511 138.485 181.879 128.854 169.998 128.854C158.116 128.854 148.484 138.485 148.484 150.367C148.484 162.248 158.116 171.88 169.998 171.88Z" fill="#2C76DC"/>
<path d="M180.286 147.56H172.803V140.078C172.803 139.333 172.508 138.62 171.982 138.093C171.455 137.567 170.742 137.271 169.997 137.271C169.253 137.271 168.539 137.567 168.013 138.093C167.487 138.62 167.191 139.333 167.191 140.078V147.56H159.708C158.964 147.56 158.25 147.856 157.724 148.382C157.198 148.909 156.902 149.622 156.902 150.367C156.902 151.111 157.198 151.824 157.724 152.351C158.25 152.877 158.964 153.173 159.708 153.173H167.191V160.655C167.191 161.4 167.487 162.113 168.013 162.64C168.539 163.166 169.253 163.462 169.997 163.462C170.742 163.462 171.455 163.166 171.982 162.64C172.508 162.113 172.803 161.4 172.803 160.655V153.173H180.286C181.031 153.173 181.744 152.877 182.271 152.351C182.797 151.824 183.092 151.111 183.092 150.367C183.092 149.622 182.797 148.909 182.271 148.382C181.744 147.856 181.031 147.56 180.286 147.56Z" fill="white"/>
<path d="M146.45 89.7884H99.8475C99.5896 89.7886 99.3342 89.7381 99.0958 89.6396C98.8575 89.5411 98.6409 89.3966 98.4584 89.2143C98.2759 89.0321 98.1312 88.8156 98.0324 88.5774C97.9336 88.3391 97.8828 88.0837 97.8828 87.8258C97.8828 87.5679 97.9336 87.3125 98.0324 87.0743C98.1312 86.836 98.2759 86.6196 98.4584 86.4373C98.6409 86.2551 98.8575 86.1105 99.0958 86.012C99.3342 85.9135 99.5896 85.863 99.8475 85.8633H146.45C146.97 85.8639 147.468 86.0709 147.836 86.4389C148.203 86.8069 148.41 87.3057 148.41 87.8258C148.41 88.3459 148.203 88.8448 147.836 89.2128C147.468 89.5808 146.97 89.7878 146.45 89.7884Z" fill="#E6E6E6"/>
<path d="M154.545 96.4119H99.8475C99.5896 96.4122 99.3342 96.3616 99.0958 96.2631C98.8575 96.1646 98.6409 96.0201 98.4584 95.8379C98.2759 95.6556 98.1312 95.4391 98.0324 95.2009C97.9336 94.9626 97.8828 94.7073 97.8828 94.4494C97.8828 94.1914 97.9336 93.9361 98.0324 93.6978C98.1312 93.4596 98.2759 93.2431 98.4584 93.0608C98.6409 92.8786 98.8575 92.7341 99.0958 92.6356C99.3342 92.5371 99.5896 92.4865 99.8475 92.4868H154.545C155.066 92.4868 155.565 92.6936 155.933 93.0616C156.301 93.4297 156.508 93.9289 156.508 94.4494C156.508 94.9698 156.301 95.469 155.933 95.8371C155.565 96.2051 155.066 96.4119 154.545 96.4119Z" fill="#E6E6E6"/>
<path d="M146.45 119.472H99.8475C99.5896 119.472 99.3342 119.422 99.0958 119.323C98.8575 119.225 98.6409 119.08 98.4584 118.898C98.2759 118.716 98.1312 118.499 98.0324 118.261C97.9336 118.023 97.8828 117.767 97.8828 117.509C97.8828 117.252 97.9336 116.996 98.0324 116.758C98.1312 116.52 98.2759 116.303 98.4584 116.121C98.6409 115.939 98.8575 115.794 99.0958 115.696C99.3342 115.597 99.5896 115.547 99.8475 115.547H146.45C146.97 115.547 147.469 115.754 147.837 116.122C148.205 116.49 148.412 116.989 148.412 117.509C148.412 118.03 148.205 118.529 147.837 118.897C147.469 119.265 146.97 119.472 146.45 119.472Z" fill="#E6E6E6"/>
<path d="M154.545 126.095H99.8475C99.5896 126.095 99.3342 126.045 99.0958 125.946C98.8575 125.848 98.6409 125.703 98.4584 125.521C98.2759 125.339 98.1312 125.122 98.0324 124.884C97.9336 124.646 97.8828 124.39 97.8828 124.132C97.8828 123.875 97.9336 123.619 98.0324 123.381C98.1312 123.143 98.2759 122.926 98.4584 122.744C98.6409 122.562 98.8575 122.417 99.0958 122.319C99.3342 122.22 99.5896 122.17 99.8475 122.17H154.545C154.803 122.17 155.058 122.22 155.297 122.319C155.535 122.417 155.752 122.562 155.934 122.744C156.117 122.926 156.261 123.143 156.36 123.381C156.459 123.619 156.51 123.875 156.51 124.132C156.51 124.39 156.459 124.646 156.36 124.884C156.261 125.122 156.117 125.339 155.934 125.521C155.752 125.703 155.535 125.848 155.297 125.946C155.058 126.045 154.803 126.095 154.545 126.095Z" fill="#E6E6E6"/>
<path d="M89.4057 99.4192H72.9137C72.6642 99.4189 72.425 99.3197 72.2486 99.1433C72.0722 98.9669 71.9729 98.7277 71.9727 98.4782V83.798C71.9729 83.5485 72.0722 83.3093 72.2486 83.1329C72.425 82.9564 72.6642 82.8572 72.9137 82.8569H89.4057C89.6552 82.8572 89.8944 82.9564 90.0708 83.1329C90.2473 83.3093 90.3465 83.5485 90.3468 83.798V98.4782C90.3465 98.7277 90.2473 98.9669 90.0708 99.1433C89.8944 99.3197 89.6552 99.4189 89.4057 99.4192Z" fill="#E6E6E6"/>
<path d="M89.4057 129.102H72.9137C72.6642 129.102 72.425 129.003 72.2486 128.826C72.0722 128.65 71.9729 128.411 71.9727 128.161V113.481C71.9729 113.232 72.0722 112.992 72.2486 112.816C72.425 112.64 72.6642 112.54 72.9137 112.54H89.4057C89.6552 112.54 89.8944 112.64 90.0708 112.816C90.2473 112.992 90.3465 113.232 90.3468 113.481V128.161C90.3465 128.411 90.2473 128.65 90.0708 128.826C89.8944 129.003 89.6552 129.102 89.4057 129.102Z" fill="#E6E6E6"/>
<path d="M146.5 56.7449H112.142C111.622 56.7449 111.123 56.5381 110.755 56.1701C110.386 55.802 110.18 55.3029 110.18 54.7824C110.18 54.2619 110.386 53.7627 110.755 53.3946C111.123 53.0266 111.622 52.8198 112.142 52.8198H146.5C147.021 52.8198 147.52 53.0266 147.888 53.3946C148.256 53.7627 148.463 54.2619 148.463 54.7824C148.463 55.3029 148.256 55.802 147.888 56.1701C147.52 56.5381 147.021 56.7449 146.5 56.7449Z" fill="#CCCCCC"/>
<path d="M154.596 63.3684H112.142C111.884 63.3684 111.629 63.3177 111.391 63.219C111.153 63.1204 110.937 62.9759 110.755 62.7936C110.572 62.6114 110.428 62.395 110.329 62.1569C110.23 61.9188 110.18 61.6636 110.18 61.4059C110.18 61.1482 110.23 60.893 110.329 60.6549C110.428 60.4168 110.572 60.2004 110.755 60.0182C110.937 59.8359 111.153 59.6914 111.391 59.5927C111.629 59.4941 111.884 59.4434 112.142 59.4434H154.596C155.116 59.4434 155.615 59.6501 155.983 60.0182C156.351 60.3862 156.558 60.8854 156.558 61.4059C156.558 61.9264 156.351 62.4256 155.983 62.7936C155.615 63.1617 155.116 63.3684 154.596 63.3684Z" fill="#CCCCCC"/>
<path d="M104.538 71.3955H72.8629C72.6134 71.3953 72.3742 71.296 72.1978 71.1196C72.0214 70.9432 71.9221 70.704 71.9219 70.4545V45.734C71.9221 45.4845 72.0214 45.2453 72.1978 45.0689C72.3742 44.8925 72.6134 44.7932 72.8629 44.793H104.538C104.787 44.7932 105.027 44.8925 105.203 45.0689C105.379 45.2453 105.479 45.4845 105.479 45.734V70.4545C105.479 70.704 105.379 70.9432 105.203 71.1196C105.027 71.296 104.787 71.3953 104.538 71.3955Z" fill="#2C76DC"/>
</g>
<defs>
<clipPath id="clip0_719_3610">
<rect width="191.511" height="171.88" fill="white"/>
</clipPath>
</defs>
</svg>
