<svg width="242" height="41" viewBox="0 0 242 41" fill="none" xmlns="http://www.w3.org/2000/svg">
<path d="M8.07031 11C8.07031 5.47715 12.5475 1 18.0703 1V19H8.07031V11Z" fill="#E1E6EF" stroke="#E1E6EF" stroke-width="0.521429"/>
<rect x="8.07031" y="19" width="10" height="2.59483" fill="#E1E6EF" stroke="#E1E6EF" stroke-width="0.521429"/>
<path fill-rule="evenodd" clip-rule="evenodd" d="M8.24038 31.2951C8.19313 30.9028 8.16882 30.5035 8.16882 30.0985V21.5948H18.0703V40C15.4902 40 13.1407 39.0132 11.3785 37.3964C9.65674 38.7345 7.07447 39.8811 4.00049 39.1633C4.82396 38.7101 7.77189 36.2105 8.24038 31.2951Z" fill="#E1E6EF"/>
<path d="M8.24038 31.2951L8.49992 31.3198L8.50259 31.2918L8.49923 31.2639L8.24038 31.2951ZM8.16882 21.5948V21.3341H7.90811V21.5948H8.16882ZM18.0703 21.5948H18.331V21.3341H18.0703V21.5948ZM18.0703 40V40.2607H18.331V40H18.0703ZM11.3785 37.3964L11.5547 37.2043L11.3924 37.0554L11.2185 37.1906L11.3785 37.3964ZM4.00049 39.1633L3.87477 38.9349L3.27933 39.2626L3.9412 39.4172L4.00049 39.1633ZM7.90811 30.0985C7.90811 30.514 7.93305 30.9237 7.98154 31.3263L8.49923 31.2639C8.45322 30.882 8.42953 30.4931 8.42953 30.0985H7.90811ZM7.90811 21.5948V30.0985H8.42953V21.5948H7.90811ZM18.0703 21.3341H8.16882V21.8555H18.0703V21.3341ZM18.331 40V21.5948H17.8096V40H18.331ZM11.2022 37.5886C13.0106 39.2477 15.4225 40.2607 18.0703 40.2607V39.7393C15.558 39.7393 13.2707 38.7787 11.5547 37.2043L11.2022 37.5886ZM3.9412 39.4172C7.11575 40.1585 9.77708 38.9711 11.5384 37.6023L11.2185 37.1906C9.53639 38.4978 7.03319 39.6037 4.05977 38.9094L3.9412 39.4172ZM7.98084 31.2703C7.52144 36.0904 4.63147 38.5184 3.87477 38.9349L4.1262 39.3917C5.01645 38.9017 8.02235 36.3306 8.49992 31.3198L7.98084 31.2703Z" fill="#E1E6EF"/>
<rect x="18.0703" y="1" width="216" height="39" fill="#E1E6EF"/>
<path d="M25.608 24V15.996H24.612V19.44H19.932V15.996H18.936V24H19.932V20.328H24.612V24H25.608ZM27.047 21.096C27.047 22.908 28.283 24.144 29.999 24.144C30.947 24.144 31.727 23.832 32.303 23.256L31.871 22.668C31.415 23.136 30.743 23.4 30.083 23.4C28.835 23.4 28.067 22.488 27.995 21.396H32.687V21.168C32.687 19.428 31.655 18.06 29.903 18.06C28.247 18.06 27.047 19.416 27.047 21.096ZM29.891 18.804C31.211 18.804 31.787 19.872 31.799 20.736H27.995C28.043 19.848 28.655 18.804 29.891 18.804ZM34.9847 24V15.996H34.0847V24H34.9847ZM37.62 24V15.996H36.72V24H37.62ZM41.8873 24.144C43.6513 24.144 44.7553 22.776 44.7553 21.096C44.7553 19.416 43.6513 18.06 41.8873 18.06C40.1233 18.06 39.0193 19.416 39.0193 21.096C39.0193 22.776 40.1233 24.144 41.8873 24.144ZM41.8873 23.34C40.6513 23.34 39.9553 22.284 39.9553 21.096C39.9553 19.92 40.6513 18.864 41.8873 18.864C43.1233 18.864 43.8073 19.92 43.8073 21.096C43.8073 22.284 43.1233 23.34 41.8873 23.34ZM48.8722 26.268C49.0402 26.316 49.3402 26.352 49.5322 26.352C50.3002 26.34 50.8882 26.016 51.2362 25.176L54.1402 18.204H53.1562L51.2362 22.956L49.3042 18.204H48.3322L50.7562 24.06L50.3722 24.936C50.1682 25.416 49.9042 25.548 49.5082 25.548C49.3642 25.548 49.1482 25.512 49.0162 25.452L48.8722 26.268ZM57.5511 24.144C59.3151 24.144 60.4191 22.776 60.4191 21.096C60.4191 19.416 59.3151 18.06 57.5511 18.06C55.7871 18.06 54.6831 19.416 54.6831 21.096C54.6831 22.776 55.7871 24.144 57.5511 24.144ZM57.5511 23.34C56.3151 23.34 55.6191 22.284 55.6191 21.096C55.6191 19.92 56.3151 18.864 57.5511 18.864C58.7871 18.864 59.4711 19.92 59.4711 21.096C59.4711 22.284 58.7871 23.34 57.5511 23.34ZM66.6383 24V18.204H65.7383V22.464C65.4023 22.932 64.7303 23.34 64.0223 23.34C63.2423 23.34 62.7263 23.04 62.7263 22.02V18.204H61.8263V22.296C61.8263 23.556 62.4623 24.144 63.6743 24.144C64.5383 24.144 65.2943 23.688 65.7383 23.184V24H66.6383ZM72.3094 24V19.896C72.5734 19.428 73.3294 18.972 73.8814 18.972C74.0254 18.972 74.1334 18.984 74.2414 19.008V18.084C73.4494 18.084 72.7774 18.528 72.3094 19.14V18.204H71.4094V24H72.3094ZM74.9743 21.096C74.9743 22.908 76.2103 24.144 77.9263 24.144C78.8743 24.144 79.6543 23.832 80.2303 23.256L79.7983 22.668C79.3423 23.136 78.6703 23.4 78.0103 23.4C76.7623 23.4 75.9943 22.488 75.9223 21.396H80.6143V21.168C80.6143 19.428 79.5823 18.06 77.8303 18.06C76.1743 18.06 74.9743 19.416 74.9743 21.096ZM77.8183 18.804C79.1383 18.804 79.7143 19.872 79.7263 20.736H75.9223C75.9703 19.848 76.5823 18.804 77.8183 18.804ZM87.1 18.204H86.2V19.068C85.78 18.48 85.072 18.06 84.256 18.06C82.732 18.06 81.676 19.212 81.676 21.096C81.676 22.968 82.732 24.144 84.256 24.144C85.036 24.144 85.732 23.772 86.2 23.124V26.208H87.1V18.204ZM86.2 22.404C85.888 22.908 85.192 23.34 84.472 23.34C83.308 23.34 82.612 22.38 82.612 21.096C82.612 19.812 83.308 18.864 84.472 18.864C85.192 18.864 85.888 19.284 86.2 19.788V22.404ZM93.6547 24V18.204H92.7547V22.464C92.4187 22.932 91.7467 23.34 91.0387 23.34C90.2587 23.34 89.7427 23.04 89.7427 22.02V18.204H88.8427V22.296C88.8427 23.556 89.4787 24.144 90.6907 24.144C91.5547 24.144 92.3107 23.688 92.7547 23.184V24H93.6547ZM95.056 21.096C95.056 22.908 96.292 24.144 98.008 24.144C98.956 24.144 99.736 23.832 100.312 23.256L99.88 22.668C99.424 23.136 98.752 23.4 98.092 23.4C96.844 23.4 96.076 22.488 96.004 21.396H100.696V21.168C100.696 19.428 99.664 18.06 97.912 18.06C96.256 18.06 95.056 19.416 95.056 21.096ZM97.9 18.804C99.22 18.804 99.796 19.872 99.808 20.736H96.004C96.052 19.848 96.664 18.804 97.9 18.804ZM101.59 23.232C102.178 23.856 102.982 24.144 103.93 24.144C105.43 24.144 106.21 23.364 106.21 22.392C106.21 21.108 105.046 20.82 104.038 20.592C103.282 20.412 102.622 20.232 102.622 19.668C102.622 19.152 103.114 18.792 103.906 18.792C104.65 18.792 105.286 19.104 105.634 19.524L106.054 18.9C105.586 18.432 104.89 18.06 103.906 18.06C102.526 18.06 101.746 18.828 101.746 19.728C101.746 20.928 102.862 21.192 103.846 21.42C104.626 21.612 105.334 21.816 105.334 22.452C105.334 23.016 104.854 23.412 103.966 23.412C103.174 23.412 102.442 23.028 102.058 22.584L101.59 23.232ZM109.076 24.144C109.604 24.144 109.928 23.988 110.156 23.772L109.892 23.1C109.772 23.232 109.532 23.34 109.28 23.34C108.884 23.34 108.692 23.028 108.692 22.596V18.996H109.868V18.204H108.692V16.62H107.792V18.204H106.832V18.996H107.792V22.788C107.792 23.652 108.224 24.144 109.076 24.144ZM110.743 21.096C110.743 22.908 111.979 24.144 113.695 24.144C114.643 24.144 115.423 23.832 115.999 23.256L115.567 22.668C115.111 23.136 114.439 23.4 113.779 23.4C112.531 23.4 111.763 22.488 111.691 21.396H116.383V21.168C116.383 19.428 115.351 18.06 113.599 18.06C111.943 18.06 110.743 19.416 110.743 21.096ZM113.587 18.804C114.907 18.804 115.483 19.872 115.495 20.736H111.691C111.739 19.848 112.351 18.804 113.587 18.804ZM122.881 24V15.996H121.981V19.08C121.513 18.444 120.805 18.06 120.025 18.06C118.501 18.06 117.445 19.26 117.445 21.108C117.445 22.992 118.513 24.144 120.025 24.144C120.841 24.144 121.549 23.724 121.981 23.136V24H122.881ZM121.981 22.428C121.657 22.932 120.961 23.34 120.241 23.34C119.077 23.34 118.381 22.392 118.381 21.108C118.381 19.824 119.077 18.864 120.241 18.864C120.961 18.864 121.657 19.296 121.981 19.8V22.428ZM129.985 18.996V18.204H128.809V17.76C128.809 17.028 129.133 16.62 129.721 16.62C129.925 16.62 130.093 16.668 130.237 16.752L130.465 16.08C130.237 15.936 129.925 15.876 129.589 15.876C128.581 15.876 127.909 16.56 127.909 17.76V18.204H126.949V18.996H127.909V24H128.809V18.996H129.985ZM133.527 24.144C135.291 24.144 136.395 22.776 136.395 21.096C136.395 19.416 135.291 18.06 133.527 18.06C131.763 18.06 130.659 19.416 130.659 21.096C130.659 22.776 131.763 24.144 133.527 24.144ZM133.527 23.34C132.291 23.34 131.595 22.284 131.595 21.096C131.595 19.92 132.291 18.864 133.527 18.864C134.763 18.864 135.447 19.92 135.447 21.096C135.447 22.284 134.763 23.34 133.527 23.34ZM138.703 24V19.896C138.967 19.428 139.723 18.972 140.275 18.972C140.419 18.972 140.527 18.984 140.635 19.008V18.084C139.843 18.084 139.171 18.528 138.703 19.14V18.204H137.803V24H138.703ZM149.261 24V20.016C149.261 18.612 148.241 18.06 147.017 18.06C146.069 18.06 145.325 18.372 144.701 19.02L145.121 19.644C145.637 19.092 146.201 18.84 146.897 18.84C147.737 18.84 148.361 19.284 148.361 20.064V21.108C147.893 20.568 147.233 20.316 146.441 20.316C145.457 20.316 144.413 20.928 144.413 22.224C144.413 23.484 145.457 24.144 146.441 24.144C147.221 24.144 147.881 23.868 148.361 23.34V24H149.261ZM148.361 22.776C148.013 23.256 147.401 23.496 146.765 23.496C145.925 23.496 145.337 22.968 145.337 22.236C145.337 21.492 145.925 20.964 146.765 20.964C147.401 20.964 148.013 21.204 148.361 21.684V22.776ZM157.051 24V16.884H159.595V15.996H153.523V16.884H156.055V24H157.051ZM164.21 24V20.016C164.21 18.612 163.19 18.06 161.966 18.06C161.018 18.06 160.274 18.372 159.65 19.02L160.07 19.644C160.586 19.092 161.15 18.84 161.846 18.84C162.686 18.84 163.31 19.284 163.31 20.064V21.108C162.842 20.568 162.182 20.316 161.39 20.316C160.406 20.316 159.362 20.928 159.362 22.224C159.362 23.484 160.406 24.144 161.39 24.144C162.17 24.144 162.83 23.868 163.31 23.34V24H164.21ZM163.31 22.776C162.962 23.256 162.35 23.496 161.714 23.496C160.874 23.496 160.286 22.968 160.286 22.236C160.286 21.492 160.874 20.964 161.714 20.964C162.35 20.964 162.962 21.204 163.31 21.684V22.776ZM170.754 24L168.522 21.024L170.622 18.204H169.578L167.97 20.412L166.362 18.204H165.318L167.418 21.024L165.198 24H166.23L167.97 21.624L169.71 24H170.754ZM174.428 21.096C174.428 22.824 175.592 24.144 177.32 24.144C178.376 24.144 179 23.712 179.444 23.136L178.844 22.584C178.46 23.1 177.968 23.34 177.368 23.34C176.132 23.34 175.364 22.38 175.364 21.096C175.364 19.812 176.132 18.864 177.368 18.864C177.968 18.864 178.46 19.092 178.844 19.62L179.444 19.068C179 18.492 178.376 18.06 177.32 18.06C175.592 18.06 174.428 19.38 174.428 21.096ZM183.177 24.144C184.941 24.144 186.045 22.776 186.045 21.096C186.045 19.416 184.941 18.06 183.177 18.06C181.413 18.06 180.309 19.416 180.309 21.096C180.309 22.776 181.413 24.144 183.177 24.144ZM183.177 23.34C181.941 23.34 181.245 22.284 181.245 21.096C181.245 19.92 181.941 18.864 183.177 18.864C184.413 18.864 185.097 19.92 185.097 21.096C185.097 22.284 184.413 23.34 183.177 23.34ZM192.265 24V19.932C192.265 18.672 191.629 18.06 190.417 18.06C189.553 18.06 188.761 18.564 188.353 19.044V18.204H187.453V24H188.353V19.764C188.689 19.296 189.361 18.864 190.069 18.864C190.849 18.864 191.365 19.188 191.365 20.208V24H192.265ZM193.498 23.232C194.086 23.856 194.89 24.144 195.838 24.144C197.338 24.144 198.118 23.364 198.118 22.392C198.118 21.108 196.954 20.82 195.946 20.592C195.19 20.412 194.53 20.232 194.53 19.668C194.53 19.152 195.022 18.792 195.814 18.792C196.558 18.792 197.194 19.104 197.542 19.524L197.962 18.9C197.494 18.432 196.798 18.06 195.814 18.06C194.434 18.06 193.654 18.828 193.654 19.728C193.654 20.928 194.77 21.192 195.754 21.42C196.534 21.612 197.242 21.816 197.242 22.452C197.242 23.016 196.762 23.412 195.874 23.412C195.082 23.412 194.35 23.028 193.966 22.584L193.498 23.232ZM204.332 24V18.204H203.432V22.464C203.096 22.932 202.424 23.34 201.716 23.34C200.936 23.34 200.42 23.04 200.42 22.02V18.204H199.52V22.296C199.52 23.556 200.156 24.144 201.368 24.144C202.232 24.144 202.988 23.688 203.432 23.184V24H204.332ZM206.97 24V15.996H206.07V24H206.97ZM210.169 24.144C210.697 24.144 211.021 23.988 211.249 23.772L210.985 23.1C210.865 23.232 210.625 23.34 210.373 23.34C209.977 23.34 209.785 23.028 209.785 22.596V18.996H210.961V18.204H209.785V16.62H208.885V18.204H207.925V18.996H208.885V22.788C208.885 23.652 209.317 24.144 210.169 24.144ZM216.696 24V20.016C216.696 18.612 215.676 18.06 214.452 18.06C213.504 18.06 212.76 18.372 212.136 19.02L212.556 19.644C213.072 19.092 213.636 18.84 214.332 18.84C215.172 18.84 215.796 19.284 215.796 20.064V21.108C215.328 20.568 214.668 20.316 213.876 20.316C212.892 20.316 211.848 20.928 211.848 22.224C211.848 23.484 212.892 24.144 213.876 24.144C214.656 24.144 215.316 23.868 215.796 23.34V24H216.696ZM215.796 22.776C215.448 23.256 214.836 23.496 214.2 23.496C213.36 23.496 212.772 22.968 212.772 22.236C212.772 21.492 213.36 20.964 214.2 20.964C214.836 20.964 215.448 21.204 215.796 21.684V22.776ZM223.252 24V19.932C223.252 18.672 222.616 18.06 221.404 18.06C220.54 18.06 219.748 18.564 219.34 19.044V18.204H218.44V24H219.34V19.764C219.676 19.296 220.348 18.864 221.056 18.864C221.836 18.864 222.352 19.188 222.352 20.208V24H223.252ZM226.454 24.144C226.982 24.144 227.306 23.988 227.534 23.772L227.27 23.1C227.15 23.232 226.91 23.34 226.658 23.34C226.262 23.34 226.07 23.028 226.07 22.596V18.996H227.246V18.204H226.07V16.62H225.17V18.204H224.21V18.996H225.17V22.788C225.17 23.652 225.602 24.144 226.454 24.144ZM228.277 23.46C228.277 23.82 228.577 24.12 228.937 24.12C229.297 24.12 229.597 23.82 229.597 23.46C229.597 23.1 229.297 22.8 228.937 22.8C228.577 22.8 228.277 23.1 228.277 23.46Z" fill="black"/>
<rect x="18.0703" y="1" width="216" height="39" stroke="#E1E6EF" stroke-width="0.521429"/>
<path d="M241.07 11C241.07 5.47715 236.593 1 231.07 1V19H241.07V11Z" fill="#E1E6EF" stroke="#E1E6EF" stroke-width="0.521429"/>
<rect width="10" height="3" transform="matrix(-1 0 0 1 241.07 19)" fill="#E1E6EF" stroke="#E1E6EF" stroke-width="0.521429"/>
<path d="M241.07 30C241.07 35.5228 236.593 40 231.07 40V22H241.07V30Z" fill="#E1E6EF" stroke="#E1E6EF" stroke-width="0.521429"/>
</svg>
