<svg width="227" height="41" viewBox="0 0 227 41" fill="none" xmlns="http://www.w3.org/2000/svg">
<path d="M1 14.0289C1 6.83324 6.83323 1 14.0289 1V19.8576H1V14.0289Z" fill="#2C76DC" stroke="#2C76DC" stroke-width="0.534247"/>
<rect x="1" y="19.8576" width="13.0289" height="1.28477" fill="#2C76DC" stroke="#2C76DC" stroke-width="0.534247"/>
<path d="M1 26.9711C1 34.1668 6.83323 40 14.0289 40V21.1424H1V26.9711Z" fill="#2C76DC" stroke="#2C76DC" stroke-width="0.534247"/>
<rect x="14.0288" y="1" width="193.456" height="39" fill="#2C76DC"/>
<rect x="14.0288" y="1" width="193.456" height="39" stroke="#2C76DC" stroke-width="0.534247"/>
<path d="M220.514 14.0289C220.514 6.83324 214.681 1 207.485 1V19.8576H220.514V14.0289Z" fill="#2C76DC" stroke="#2C76DC" stroke-width="0.534247"/>
<rect width="13.0289" height="1.28477" transform="matrix(-1 0 0 1 220.514 19.8576)" fill="#2C76DC" stroke="#2C76DC" stroke-width="0.534247"/>
<path fill-rule="evenodd" clip-rule="evenodd" d="M220.278 29.455C220.433 28.6509 220.514 27.8205 220.514 26.9711V21.1424H207.485V40C210.64 40 213.533 38.8786 215.788 37.0125C218.037 38.5108 221.643 39.935 226 39.1428C224.8 38.6285 220.171 35.5427 220.343 29.3712C220.322 29.3998 220.3 29.4277 220.278 29.455Z" fill="#2C76DC"/>
<path d="M220.278 29.455L220.484 29.6251L220.015 29.4044L220.278 29.455ZM220.514 21.1424V20.8753H220.781V21.1424H220.514ZM207.485 21.1424H207.218V20.8753H207.485V21.1424ZM207.485 40V40.2671H207.218V40H207.485ZM215.788 37.0125L215.617 36.8068L215.77 36.6801L215.936 36.7902L215.788 37.0125ZM226 39.1428L226.105 38.8973L226.921 39.2469L226.048 39.4057L226 39.1428ZM220.343 29.3712L220.127 29.214L220.634 28.5169L220.61 29.3786L220.343 29.3712ZM220.781 26.9711C220.781 27.8376 220.698 28.6849 220.54 29.5056L220.015 29.4044C220.167 28.6169 220.247 27.8034 220.247 26.9711H220.781ZM220.781 21.1424V26.9711H220.247V21.1424H220.781ZM207.485 20.8753H220.514V21.4095H207.485V20.8753ZM207.218 40V21.1424H207.752V40H207.218ZM215.958 37.2183C213.658 39.1225 210.705 40.2671 207.485 40.2671V39.7329C210.576 39.7329 213.409 38.6346 215.617 36.8068L215.958 37.2183ZM226.048 39.4057C221.606 40.2133 217.93 38.7607 215.64 37.2348L215.936 36.7902C218.143 38.2609 221.68 39.6567 225.952 38.88L226.048 39.4057ZM220.61 29.3786C220.526 32.3906 221.612 34.6449 222.866 36.2116C224.124 37.7849 225.546 38.6577 226.105 38.8973L225.895 39.3884C225.254 39.1137 223.761 38.1864 222.448 36.5454C221.13 34.8977 219.988 32.5233 220.076 29.3637L220.61 29.3786ZM220.072 29.2848C220.091 29.2617 220.109 29.2381 220.127 29.214L220.559 29.5283C220.535 29.5614 220.51 29.5937 220.484 29.6251L220.072 29.2848Z" fill="#2C76DC"/>
</svg>
